<svg width="478" height="476" viewBox="0 0 478 476" fill="none" xmlns="http://www.w3.org/2000/svg">
<path d="M90.3928 398.449C73.9145 380.161 73.1486 359.329 88.3302 342.347C110.195 317.889 149.258 329.595 155.311 362.418C162.311 400.384 115.532 426.347 90.3928 398.449Z" fill="white"/>
<path d="M477.719 237.597C477.725 268.797 471.551 299.692 459.551 328.518C447.55 357.345 429.956 383.538 407.776 405.601C385.595 427.665 359.261 445.167 330.278 457.108C301.295 469.049 270.231 475.195 238.859 475.195C207.488 475.195 176.424 469.049 147.441 457.108C118.458 445.167 92.1239 427.665 69.9431 405.601C47.7623 383.538 30.1691 357.345 18.1681 328.518C6.16719 299.692 -0.00638235 268.797 4.95125e-06 237.597C-0.00638235 206.398 6.16719 175.503 18.1681 146.677C30.1691 117.85 47.7623 91.6572 69.9431 69.5936C92.1239 47.53 118.458 30.028 147.441 18.087C176.424 6.14599 207.488 0 238.859 0C270.231 0 301.295 6.14599 330.278 18.087C359.261 30.028 385.595 47.53 407.776 69.5936C429.956 91.6572 447.55 117.85 459.551 146.677C471.551 175.503 477.725 206.398 477.719 237.597Z" fill="#CF3035"/>
<path d="M207.853 306.911C199.346 299.853 197.253 294.922 197.074 281.521C196.778 259.307 209.282 240.304 242.506 212.476C285.167 176.743 294.299 143.96 268.681 118.515C259.18 109.079 254.565 107.536 235.496 107.42C208.175 107.254 196.497 115.104 181.474 143.736C168.073 169.277 157.059 177.186 139.618 173.794C93.5811 164.841 116.307 92.8688 174.962 61.8619C188.314 54.8036 199.724 52.4979 226.569 51.433C286.815 49.0432 324.836 67.5292 345.503 109.26C354.66 127.751 355.922 134.212 354.784 156.788C353.099 190.209 342.789 206.134 299.163 242.697C276.511 261.683 264.941 274.508 259.255 286.933C245.684 316.586 227.864 323.512 207.853 306.911Z" fill="white"/>
<path d="M197.825 405.403C181.347 387.116 180.581 366.283 195.762 349.301C217.627 324.843 256.69 336.549 262.743 369.372C269.744 407.338 222.964 433.302 197.825 405.403Z" fill="white"/>
</svg>
