<svg width="16" height="16" viewBox="0 0 16 16" fill="none" xmlns="http://www.w3.org/2000/svg">
<path d="M3.02752 13.3451C2.47562 12.7326 2.44996 12.0348 2.95843 11.4661C3.69073 10.6469 4.99906 11.039 5.20178 12.1383C5.43625 13.4099 3.86949 14.2795 3.02752 13.3451Z" fill="white"/>
<path d="M16 7.95774C16.0002 9.00268 15.7934 10.0374 15.3915 11.0029C14.9896 11.9684 14.4003 12.8456 13.6574 13.5846C12.9145 14.3236 12.0326 14.9098 11.0618 15.3097C10.0911 15.7096 9.05071 15.9155 8 15.9155C6.94929 15.9155 5.90887 15.7096 4.93816 15.3097C3.96745 14.9098 3.08546 14.3236 2.34257 13.5846C1.59968 12.8456 1.01044 11.9684 0.608496 11.0029C0.206555 10.0374 -0.000213761 9.00268 1.6583e-07 7.95774C-0.000213761 6.91279 0.206555 5.87803 0.608496 4.91256C1.01044 3.9471 1.59968 3.06983 2.34257 2.33087C3.08546 1.5919 3.96745 1.00571 4.93816 0.605778C5.90887 0.205845 6.94929 0 8 0C9.05071 0 10.0911 0.205845 11.0618 0.605778C12.0326 1.00571 12.9145 1.5919 13.6574 2.33087C14.4003 3.06983 14.9896 3.9471 15.3915 4.91256C15.7934 5.87803 16.0002 6.91279 16 7.95774Z" fill="#CF3035"/>
<path d="M6.96148 10.2792C6.67657 10.0428 6.60646 9.87769 6.60049 9.42885C6.59057 8.68483 7.00936 8.04838 8.12212 7.11634C9.55093 5.91957 9.8568 4.82157 8.99878 3.96938C8.68056 3.65332 8.526 3.60164 7.88734 3.59776C6.97228 3.5922 6.58116 3.85513 6.078 4.81409C5.62917 5.6695 5.26028 5.93441 4.67614 5.8208C3.13424 5.52093 3.8954 3.1104 5.8599 2.07191C6.3071 1.8355 6.68923 1.75828 7.58834 1.72262C9.60613 1.64258 10.8795 2.26172 11.5717 3.65939C11.8784 4.27869 11.9207 4.49508 11.8826 5.25123C11.8262 6.37058 11.4808 6.90394 10.0197 8.12854C9.26104 8.7644 8.8735 9.19395 8.68306 9.61009C8.22856 10.6033 7.6317 10.8352 6.96148 10.2792Z" fill="white"/>
<path d="M6.62566 13.578C6.07376 12.9655 6.04811 12.2678 6.55658 11.699C7.28888 10.8798 8.59721 11.2719 8.79992 12.3712C9.0344 13.6428 7.46763 14.5124 6.62566 13.578Z" fill="white"/>
</svg>
